<svg id="Layer_9" data-name="Layer 9" xmlns="http://www.w3.org/2000/svg" viewBox="0 0 628.53 379.37"><defs><style>.cls-1{fill:#fcba69;}.cls-2{fill:none;stroke:#fcba69;stroke-miterlimit:10;stroke-width:4px;}</style></defs><title>logo_yellow</title><g id="Logo"><path class="cls-1" d="M137.52,2547.46c12,29.94,21.58,61,30,92.12,16.09,59,28.44,121,25,182.45-1.75,30.88-8.11,62.64-25.4,88.8-3.92,5.94,4.54,11.6,9.42,7.27,14.28-12.65,26.11-28.84,36.81-44.47,28.15-41.12,48.18-87.75,61.24-135.73,10.57-38.84,16.48-78.88,18.71-119l-11.79,1.6c3.27,21.13,6.83,42.22,10.5,63.28,7.32,42,15.15,84,24.55,125.65,4.64,20.51,9.57,41,15.95,61.07,2.34,7.33,13.93,4.19,11.57-3.19-12.12-38.07-19.93-77.62-27.61-116.77-7.21-36.81-13.73-73.75-19.79-110.77-1.22-7.48-2.44-15-3.6-22.46-1.07-7-11.43-4.8-11.78,1.59-3.55,63.89-16.91,127.78-43.38,186.24-14.82,32.73-33.68,64.52-57,91.12a147.84,147.84,0,0,1-12.85,13.4l9.42,7.27c15.77-23.87,22.86-52.26,25.86-80.4,3.38-31.54,1.52-63.55-2.58-94.93-7.3-55.81-21.53-110.69-39.59-163.94-3.8-11.19-7.69-22.38-12.09-33.35-2.83-7.09-14.44-4-11.57,3.19Z" transform="translate(-137.07 -2540.26)"/><path class="cls-1" d="M228.31,2808.5c9-.69,17.95-2.7,26.64-4.91a308.58,308.58,0,0,0,64.9-25.12A368.85,368.85,0,0,0,367.34,2749c6.19-4.49.21-14.91-6.06-10.36-37.14,27-80.12,49-125.75,56.82-1.22.21-2.44.4-3.67.59a7.24,7.24,0,0,1-1.27.17c-.76.08-1.52.18-2.28.24-7.65.59-7.72,12.59,0,12Z" transform="translate(-137.07 -2540.26)"/></g><g id="Name"><path class="cls-2" d="M393.36,2754.16v45s20,11.5,25.5-6-10.5-23-22.5-17" transform="translate(-137.07 -2540.26)"/><path class="cls-2" d="M438.21,2786.54c3.34.17,8.74-.11,10.41-3.59a5.64,5.64,0,0,0-5.1-8.14c-4,.13-6.22,3.47-7.69,6.91-2.33,5.4-3.87,13,.7,17.69,5.67,5.88,15.69,3.08,22.12.31" transform="translate(-137.07 -2540.26)"/><path class="cls-2" d="M496.64,2779.58c-4.25-3.25-11.71-7.18-16.49-2.89-4.07,3.66-5,12.67-3.9,17.61a12.35,12.35,0,0,0,5.15,7.26c7.13,4.07,13.92-7,16.81-11.76,1.72,6.45,3.67,12.54,11.64,13.07" transform="translate(-137.07 -2540.26)"/><path class="cls-2" d="M539.92,2776.13c-15-6.72-21.06,17.88-9.46,25.1,6,3.71,12.89-.3,17.6-4.2" transform="translate(-137.07 -2540.26)"/><path class="cls-2" d="M562.88,2753.31s2.19,30.83,1.23,41.28,6.41,12.14,16.2,4" transform="translate(-137.07 -2540.26)"/><path class="cls-2" d="M575.63,2774.74s-14.07,1.89-18.49-.61" transform="translate(-137.07 -2540.26)"/><path class="cls-2" d="M595.83,2774v21.89s3.83,15.32,12.76,0" transform="translate(-137.07 -2540.26)"/><path class="cls-1" d="M595.83,2765.41c3.21,0,3.22-5,0-5s-3.23,5,0,5Z" transform="translate(-137.07 -2540.26)"/><path class="cls-2" d="M517.36,2797.43" transform="translate(-137.07 -2540.26)"/><path class="cls-2" d="M517.36,2797.43" transform="translate(-137.07 -2540.26)"/><path class="cls-2" d="M620.72,2777.34s9.85,19.28,9.23,25.21,17.54-11.64,17.54-25.21" transform="translate(-137.07 -2540.26)"/><path class="cls-2" d="M664,2786.54c3.34.17,8.73-.11,10.4-3.59a5.64,5.64,0,0,0-5.1-8.14c-4,.13-6.21,3.47-7.69,6.91-2.32,5.4-3.87,13,.7,17.69,5.68,5.88,15.69,3.08,22.13.31" transform="translate(-137.07 -2540.26)"/><path class="cls-2" d="M696.57,2775.58s9-4.7,8.59,28.09v-28.91s6.64-2.25,16.4,1" transform="translate(-137.07 -2540.26)"/><path class="cls-2" d="M752.25,2779.58c-4.25-3.25-11.71-7.18-16.49-2.89-4.07,3.66-5,12.67-3.89,17.61a12.33,12.33,0,0,0,5.14,7.26c7.14,4.07,13.92-7,16.82-11.76,1.72,6.45,3.67,12.54,11.64,13.07" transform="translate(-137.07 -2540.26)"/></g></svg>