<svg id="Layer_2" data-name="Layer 2" xmlns="http://www.w3.org/2000/svg" viewBox="0 0 628.53 379.37"><defs><style>.cls-1{fill:#731240;}.cls-2{fill:none;stroke:#731240;stroke-miterlimit:10;stroke-width:4px;}</style></defs><title>logo_rose</title><g id="Logo"><path class="cls-1" d="M129,730.51c12,29.94,21.57,61,30.05,92.12,16.08,59,28.44,121,24.95,182.45-1.75,30.88-8.11,62.64-25.4,88.81-3.92,5.93,4.54,11.6,9.42,7.27,14.28-12.66,26.11-28.84,36.81-44.48C233,1015.56,253,968.93,266.07,921c10.57-38.84,16.48-78.87,18.71-119L273,803.51c3.26,21.13,6.82,42.22,10.49,63.28,7.32,42,15.15,84,24.55,125.65,4.64,20.51,9.57,41,16,61.07,2.33,7.33,13.92,4.2,11.57-3.19-12.13-38.07-19.94-77.61-27.61-116.77-7.22-36.8-13.73-73.75-19.79-110.76-1.23-7.49-2.45-15-3.6-22.47-1.08-7-11.43-4.8-11.79,1.59-3.55,63.89-16.9,127.78-43.38,186.24-14.82,32.73-33.68,64.52-57,91.13a147.83,147.83,0,0,1-12.86,13.39l9.42,7.27c15.77-23.86,22.86-52.25,25.87-80.4,3.37-31.54,1.52-63.54-2.59-94.93-7.29-55.8-21.53-110.69-39.59-163.94-3.79-11.19-7.69-22.38-12.08-33.35-2.84-7.08-14.45-4-11.57,3.19Z" transform="translate(-128.54 -723.31)"/><path class="cls-1" d="M219.78,991.55c9-.69,17.95-2.7,26.64-4.91a308.37,308.37,0,0,0,64.9-25.12,367.75,367.75,0,0,0,47.49-29.43c6.19-4.49.21-14.9-6.06-10.36-37.13,27-80.12,49-125.74,56.83-1.23.21-2.45.39-3.68.58a5.66,5.66,0,0,1-1.27.17c-.76.08-1.52.18-2.28.24-7.65.59-7.71,12.59,0,12Z" transform="translate(-128.54 -723.31)"/></g><g id="Name"><path class="cls-2" d="M384.83,937.22v45s20,11.5,25.5-6-10.5-23-22.5-17" transform="translate(-128.54 -723.31)"/><path class="cls-2" d="M429.68,969.59c3.35.17,8.74-.11,10.41-3.59a5.64,5.64,0,0,0-5.1-8.14c-4,.13-6.21,3.47-7.69,6.91-2.32,5.41-3.87,13,.7,17.7,5.67,5.87,15.69,3.08,22.12.31" transform="translate(-128.54 -723.31)"/><path class="cls-2" d="M488.11,962.64c-4.25-3.26-11.71-7.19-16.49-2.89-4.07,3.65-5,12.66-3.89,17.61a12.36,12.36,0,0,0,5.14,7.26c7.13,4.06,13.92-7,16.81-11.76,1.73,6.44,3.68,12.53,11.65,13.07" transform="translate(-128.54 -723.31)"/><path class="cls-2" d="M531.39,959.18c-15-6.72-21.06,17.88-9.46,25.1,6,3.71,12.89-.29,17.61-4.2" transform="translate(-128.54 -723.31)"/><path class="cls-2" d="M554.36,936.36s2.18,30.83,1.22,41.29,6.42,12.14,16.2,4" transform="translate(-128.54 -723.31)"/><path class="cls-2" d="M567.11,957.79s-14.07,1.89-18.49-.61" transform="translate(-128.54 -723.31)"/><path class="cls-2" d="M587.3,957.05v21.89s3.83,15.33,12.77,0" transform="translate(-128.54 -723.31)"/><path class="cls-1" d="M587.3,948.46c3.21,0,3.22-5,0-5s-3.22,5,0,5Z" transform="translate(-128.54 -723.31)"/><path class="cls-2" d="M508.83,980.48" transform="translate(-128.54 -723.31)"/><path class="cls-2" d="M508.83,980.48" transform="translate(-128.54 -723.31)"/><path class="cls-2" d="M612.19,960.4s9.85,19.27,9.24,25.2S639,974,639,960.4" transform="translate(-128.54 -723.31)"/><path class="cls-2" d="M655.42,969.59c3.34.17,8.73-.11,10.41-3.59a5.65,5.65,0,0,0-5.1-8.14c-4,.13-6.22,3.47-7.7,6.91-2.32,5.41-3.87,13,.71,17.7,5.67,5.87,15.68,3.08,22.12.31" transform="translate(-128.54 -723.31)"/><path class="cls-2" d="M688,958.64s9-4.71,8.59,28.09V957.81s6.64-2.25,16.4,1" transform="translate(-128.54 -723.31)"/><path class="cls-2" d="M743.72,962.64c-4.25-3.26-11.7-7.19-16.49-2.89-4.07,3.65-5,12.66-3.89,17.61a12.36,12.36,0,0,0,5.14,7.26c7.14,4.06,13.93-7,16.82-11.76,1.72,6.44,3.67,12.53,11.64,13.07" transform="translate(-128.54 -723.31)"/></g></svg>