<svg id="Layer_9" data-name="Layer 9" xmlns="http://www.w3.org/2000/svg" viewBox="0 0 245.16 391.91"><defs><style>.cls-1{fill:#fcba69;}</style></defs><title>logo_yellow_sign</title><g id="Logo"><path class="cls-1" d="M131.74,2549.05c12,29.94,21.57,61,30,92.12a808.86,808.86,0,0,1,19.39,89.46c1.35,8.69,1.88,12.6,2.88,21.56q1.32,11.78,2.1,23.61a383.37,383.37,0,0,1,.37,46.23q-.37,6.69-1.06,13.36c-.19,1.83-.41,3.65-.62,5.47-.41,3.61.38-2.44-.14,1.14-.16,1.08-.31,2.15-.48,3.23a210.8,210.8,0,0,1-4.92,23.31c-1,3.79-2.19,7.54-3.49,11.25q-.82,2.39-1.73,4.74c-.36.93-.74,1.86-1.1,2.79-1,2.4.84-1.75-.34.8A149.06,149.06,0,0,1,162,2907.8c-3.27,4.94-1.45,12.1,3.09,15.48,5,3.7,11.17,3.13,15.75-.93,14.65-13,26.78-29.66,37.75-45.69,28.42-41.52,48.66-88.73,61.84-137.17,10.71-39.34,16.67-79.95,18.93-120.63l-23.57,3.19c3.26,21.13,6.82,42.22,10.49,63.28,7.33,42,15.16,84,24.56,125.65,4.63,20.51,9.56,41,15.95,61.07a12.25,12.25,0,0,0,14.76,8.38c6.07-1.67,10.36-8.56,8.38-14.76-12.13-38.07-19.94-77.61-27.61-116.77-7.21-36.8-13.73-73.75-19.79-110.76q-1.85-11.23-3.6-22.47c-.9-5.81-7.87-9.39-13.17-8.6-6.07.92-10.06,5.68-10.4,11.79a555.86,555.86,0,0,1-15.37,103.91q-5.47,21.89-12.87,43.23-3.4,9.78-7.23,19.41c-.6,1.5-1.2,3-1.82,4.49-.13.34-1.88,4.52-1.08,2.62q-2,4.8-4.19,9.55a413.29,413.29,0,0,1-31.31,57.08c-4.54,6.89-9.36,13.57-14.31,20.17-1,1.32,1.68-2.13-.11.15l-1.56,2c-1.11,1.4-2.22,2.78-3.35,4.15q-2.67,3.24-5.43,6.39a149.27,149.27,0,0,1-12.86,13.4l18.85,14.54c16.37-24.78,23.56-54.24,26.68-83.43,3.38-31.54,1.52-63.55-2.58-94.93C199.4,2685.19,185.21,2629.81,167,2576c-3.79-11.19-7.69-22.38-12.08-33.35-2.41-6-8-10.24-14.76-8.38-5.71,1.57-10.81,8.71-8.38,14.76Z" transform="translate(-131.12 -2533.85)"/><path class="cls-1" d="M228.31,2814.5a168.05,168.05,0,0,0,28.23-5.13c23-5.85,45.28-14.86,66.34-25.72a369.54,369.54,0,0,0,47.49-29.43c5.23-3.8,7.8-10.43,4.3-16.42-3-5.17-11.14-8.13-16.42-4.3-37.24,27-78.8,48.43-124.31,56.22-1.22.21-2.45.39-3.67.58-2.84.45,3.34-.35.32,0-.76.08-1.52.18-2.28.24-6.46.49-12,5.16-12,12,0,6.11,5.5,12.5,12,12Z" transform="translate(-131.12 -2533.85)"/></g></svg>