<svg id="Layer_2" data-name="Layer 2" xmlns="http://www.w3.org/2000/svg" viewBox="0 0 245.16 391.91"><defs><style>.cls-1{fill:#731240;}</style></defs><title>logo_rose_sign</title><g id="Logo"><path class="cls-1" d="M123.21,732.1c12,29.95,21.57,61,30.05,92.13a810.51,810.51,0,0,1,19.4,89.45c1.34,8.7,1.87,12.61,2.87,21.56q1.32,11.78,2.1,23.61a381.32,381.32,0,0,1,.37,46.23q-.37,6.69-1.06,13.36c-.19,1.83-.41,3.65-.62,5.48-.41,3.6.38-2.44-.14,1.14-.16,1.07-.31,2.15-.48,3.22a210.31,210.31,0,0,1-4.92,23.31c-1,3.79-2.19,7.55-3.48,11.26-.56,1.58-1.13,3.16-1.74,4.73-.36.94-.73,1.86-1.1,2.8-1,2.4.84-1.75-.34.79a148.65,148.65,0,0,1-10.7,19.69c-3.26,4.93-1.44,12.09,3.09,15.48,5,3.7,11.17,3.12,15.76-.94,14.64-13,26.77-29.65,37.75-45.69,28.42-41.51,48.66-88.72,61.84-137.17,10.7-39.34,16.66-79.95,18.92-120.63l-23.57,3.19c3.26,21.14,6.83,42.22,10.5,63.29,7.32,42,15.15,84,24.55,125.65,4.63,20.51,9.56,41,15.95,61.06a12.24,12.24,0,0,0,14.76,8.38c6.07-1.66,10.36-8.56,8.38-14.76-12.12-38.06-19.93-77.61-27.61-116.76C306.53,895.15,300,858.21,294,821.19c-1.22-7.48-2.44-15-3.6-22.47-.9-5.81-7.87-9.39-13.16-8.59-6.07.91-10.07,5.67-10.41,11.78a555.74,555.74,0,0,1-15.37,103.91q-5.46,21.88-12.87,43.23-3.4,9.78-7.23,19.42c-.6,1.49-1.2,3-1.81,4.48-.14.34-1.89,4.52-1.09,2.63q-2,4.8-4.19,9.54a413.7,413.7,0,0,1-31.3,57.08c-4.55,6.9-9.36,13.57-14.31,20.17-1,1.33,1.68-2.13-.12.15l-1.56,2q-1.65,2.09-3.35,4.15-2.67,3.22-5.43,6.38a147.84,147.84,0,0,1-12.85,13.4L174.14,1103c16.37-24.77,23.57-54.24,26.69-83.43,3.37-31.54,1.52-63.54-2.59-94.93-7.37-56.37-21.56-111.74-39.8-165.54-3.8-11.19-7.69-22.37-12.09-33.35-2.41-6-8-10.23-14.76-8.38-5.71,1.57-10.8,8.71-8.38,14.76Z" transform="translate(-122.59 -716.9)"/><path class="cls-1" d="M219.78,997.55A166.87,166.87,0,0,0,248,992.42c23-5.84,45.28-14.86,66.34-25.72a368.78,368.78,0,0,0,47.49-29.42c5.24-3.81,7.8-10.44,4.3-16.42-3-5.17-11.14-8.14-16.42-4.31-37.23,27-78.8,48.43-124.31,56.22-1.22.21-2.45.39-3.67.59-2.84.45,3.34-.36.32-.05-.76.08-1.52.18-2.28.24-6.46.5-12,5.16-12,12,0,6.11,5.5,12.5,12,12Z" transform="translate(-122.59 -716.9)"/></g></svg>