<svg id="Layer_4" data-name="Layer 4" xmlns="http://www.w3.org/2000/svg" viewBox="0 0 628.53 379.37"><defs><style>.cls-1{fill:#595e77;}.cls-2{fill:none;stroke:#595e77;stroke-miterlimit:10;stroke-width:4px;}</style></defs><title>logo_grey</title><g id="Logo"><path class="cls-1" d="M125,1961.36c12,29.94,21.57,61,30.05,92.12,16.08,59,28.44,121,25,182.45-1.75,30.88-8.11,62.64-25.4,88.81-3.92,5.93,4.54,11.6,9.43,7.27,14.27-12.66,26.1-28.84,36.81-44.47,28.15-41.12,48.18-87.75,61.23-135.74,10.57-38.84,16.48-78.87,18.71-119L269,2034.36c3.26,21.13,6.82,42.22,10.49,63.28,7.33,42,15.16,84,24.56,125.65,4.63,20.51,9.56,41,15.95,61.07,2.33,7.33,13.92,4.2,11.57-3.19-12.13-38.07-19.94-77.61-27.61-116.77-7.22-36.8-13.73-73.75-19.79-110.76q-1.85-11.23-3.6-22.47c-1.08-7-11.43-4.8-11.79,1.6-3.55,63.89-16.9,127.77-43.37,186.23-14.83,32.74-33.69,64.52-57,91.13a147.83,147.83,0,0,1-12.86,13.39l9.42,7.27c15.77-23.86,22.86-52.25,25.87-80.4,3.37-31.54,1.52-63.54-2.58-94.93-7.3-55.8-21.54-110.69-39.6-163.94-3.79-11.19-7.69-22.38-12.08-33.35-2.84-7.08-14.45-4-11.57,3.19Z" transform="translate(-124.53 -1954.17)"/><path class="cls-1" d="M215.77,2222.4c9-.68,17.95-2.7,26.64-4.91a307.91,307.91,0,0,0,64.91-25.12A369.36,369.36,0,0,0,354.8,2163c6.19-4.5.21-14.91-6.05-10.37-37.14,27-80.13,49-125.75,56.83-1.22.21-2.45.39-3.67.58a5.84,5.84,0,0,1-1.28.17c-.76.09-1.51.18-2.28.24-7.65.59-7.71,12.59,0,12Z" transform="translate(-124.53 -1954.17)"/></g><g id="Name"><path class="cls-2" d="M380.82,2168.07v45s20,11.5,25.5-6-10.5-23-22.5-17" transform="translate(-124.53 -1954.17)"/><path class="cls-2" d="M425.68,2200.45c3.34.16,8.73-.12,10.4-3.6a5.64,5.64,0,0,0-5.1-8.14c-4,.13-6.21,3.47-7.69,6.91-2.32,5.41-3.87,13,.7,17.7,5.68,5.87,15.69,3.08,22.13.31" transform="translate(-124.53 -1954.17)"/><path class="cls-2" d="M484.1,2193.49c-4.25-3.26-11.71-7.19-16.49-2.89-4.07,3.65-5,12.66-3.89,17.61a12.36,12.36,0,0,0,5.14,7.26c7.14,4.06,13.92-7,16.82-11.76,1.72,6.44,3.67,12.54,11.64,13.07" transform="translate(-124.53 -1954.17)"/><path class="cls-2" d="M527.38,2190c-15-6.73-21.05,17.88-9.46,25.09,6,3.71,12.89-.29,17.61-4.2" transform="translate(-124.53 -1954.17)"/><path class="cls-2" d="M550.35,2167.21s2.18,30.83,1.22,41.29,6.42,12.14,16.2,4" transform="translate(-124.53 -1954.17)"/><path class="cls-2" d="M563.1,2188.64s-14.07,1.89-18.49-.61" transform="translate(-124.53 -1954.17)"/><path class="cls-2" d="M583.29,2187.9v21.89s3.83,15.33,12.77,0" transform="translate(-124.53 -1954.17)"/><path class="cls-1" d="M583.29,2179.32c3.22,0,3.22-5,0-5s-3.22,5,0,5Z" transform="translate(-124.53 -1954.17)"/><path class="cls-2" d="M504.82,2211.34" transform="translate(-124.53 -1954.17)"/><path class="cls-2" d="M504.82,2211.34" transform="translate(-124.53 -1954.17)"/><path class="cls-2" d="M608.19,2191.25s9.84,19.28,9.23,25.2,17.54-11.64,17.54-25.2" transform="translate(-124.53 -1954.17)"/><path class="cls-2" d="M651.41,2200.45c3.34.16,8.74-.12,10.41-3.6a5.64,5.64,0,0,0-5.1-8.14c-4,.13-6.22,3.47-7.7,6.91-2.32,5.41-3.87,13,.71,17.7,5.67,5.87,15.69,3.08,22.12.31" transform="translate(-124.53 -1954.17)"/><path class="cls-2" d="M684,2189.49s9-4.71,8.59,28.09v-28.92s6.64-2.25,16.4,1" transform="translate(-124.53 -1954.17)"/><path class="cls-2" d="M739.71,2193.49c-4.24-3.26-11.7-7.19-16.48-2.89-4.07,3.65-5,12.66-3.9,17.61a12.38,12.38,0,0,0,5.15,7.26c7.13,4.06,13.92-7,16.81-11.76,1.72,6.44,3.67,12.54,11.64,13.07" transform="translate(-124.53 -1954.17)"/></g></svg>