<svg id="Layer_3" data-name="Layer 3" xmlns="http://www.w3.org/2000/svg" viewBox="0 0 628.5 379.37"><defs><style>.cls-1{fill:#231f20;}.cls-2,.cls-3{fill:none;stroke:#231f20;stroke-miterlimit:10;}.cls-2{stroke-width:3px;}</style></defs><title>logo</title><g id="Logo"><path class="cls-1" d="M97.32,713.66c12,29.94,21.57,61,30.05,92.12,16.08,59,28.44,121,24.95,182.45-1.75,30.88-8.11,62.64-25.4,88.81-3.92,5.93,4.54,11.6,9.42,7.27,14.28-12.66,26.11-28.84,36.82-44.47,28.14-41.13,48.18-87.76,61.23-135.74,10.57-38.84,16.48-78.87,18.71-119l-11.78,1.6c3.26,21.13,6.82,42.22,10.49,63.28,7.32,42,15.15,84,24.56,125.65,4.63,20.51,9.56,41,15.95,61.07,2.33,7.33,13.92,4.2,11.57-3.19C291.76,995.4,284,955.86,276.28,916.7c-7.22-36.8-13.73-73.75-19.79-110.76-1.23-7.49-2.45-15-3.6-22.47-1.08-7-11.43-4.8-11.79,1.59C237.55,849,224.2,912.84,197.72,971.3c-14.82,32.73-33.68,64.52-57,91.13a147.83,147.83,0,0,1-12.86,13.39l9.42,7.27c15.77-23.86,22.86-52.25,25.87-80.4,3.37-31.54,1.52-63.54-2.59-94.93C153.27,852,139,797.07,121,743.82c-3.79-11.19-7.69-22.38-12.08-33.35-2.84-7.08-14.45-4-11.57,3.19Z" transform="translate(-96.86 -706.46)"/><path class="cls-1" d="M188.1,974.7c9-.69,18-2.7,26.64-4.91a308.37,308.37,0,0,0,64.9-25.12,367.75,367.75,0,0,0,47.49-29.43c6.19-4.49.21-14.9-6.06-10.36-37.13,27-80.12,49-125.74,56.83-1.23.21-2.45.39-3.67.58a5.84,5.84,0,0,1-1.28.17c-.76.09-1.52.18-2.28.24-7.65.59-7.71,12.59,0,12Z" transform="translate(-96.86 -706.46)"/></g><g id="Name"><path class="cls-2" d="M353.15,920.37v45s20,11.5,25.5-6-10.5-23-22.5-17" transform="translate(-96.86 -706.46)"/><path class="cls-2" d="M398,952.74c3.34.17,8.73-.11,10.4-3.59a5.64,5.64,0,0,0-5.1-8.14c-4,.13-6.21,3.47-7.69,6.91-2.32,5.41-3.87,13,.7,17.7,5.68,5.87,15.69,3.08,22.13.31" transform="translate(-96.86 -706.46)"/><path class="cls-2" d="M456.43,945.79c-4.25-3.26-11.71-7.19-16.49-2.89-4.07,3.65-5,12.66-3.89,17.61a12.36,12.36,0,0,0,5.14,7.26c7.14,4.06,13.92-7,16.81-11.76,1.73,6.44,3.68,12.53,11.65,13.07" transform="translate(-96.86 -706.46)"/><path class="cls-2" d="M499.71,942.33c-15-6.72-21,17.88-9.46,25.1,6,3.71,12.89-.29,17.61-4.2" transform="translate(-96.86 -706.46)"/><path class="cls-2" d="M522.68,919.51s2.18,30.83,1.22,41.29,6.42,12.14,16.2,4" transform="translate(-96.86 -706.46)"/><path class="cls-2" d="M535.43,940.94s-14.07,1.89-18.49-.61" transform="translate(-96.86 -706.46)"/><path class="cls-2" d="M555.62,940.2v21.89s3.83,15.33,12.77,0" transform="translate(-96.86 -706.46)"/><path class="cls-1" d="M555.62,931a1.88,1.88,0,0,0,0-3.75,1.88,1.88,0,0,0,0,3.75Z" transform="translate(-96.86 -706.46)"/><path class="cls-3" d="M477.15,963.63" transform="translate(-96.86 -706.46)"/><path class="cls-2" d="M477.15,963.63" transform="translate(-96.86 -706.46)"/><path class="cls-2" d="M580.52,943.55s9.84,19.27,9.23,25.2,17.54-11.64,17.54-25.2" transform="translate(-96.86 -706.46)"/><path class="cls-2" d="M623.74,952.74c3.34.17,8.73-.11,10.41-3.59a5.65,5.65,0,0,0-5.1-8.14c-4,.13-6.22,3.47-7.7,6.91-2.32,5.41-3.87,13,.71,17.7,5.67,5.87,15.69,3.08,22.12.31" transform="translate(-96.86 -706.46)"/><path class="cls-2" d="M656.36,941.79s9-4.71,8.59,28.09V941s6.64-2.25,16.4,1" transform="translate(-96.86 -706.46)"/><path class="cls-2" d="M712,945.79c-4.24-3.26-11.7-7.19-16.49-2.89-4.07,3.65-5,12.66-3.89,17.61a12.41,12.41,0,0,0,5.14,7.26c7.14,4.06,13.93-7,16.82-11.76,1.72,6.44,3.67,12.53,11.64,13.07" transform="translate(-96.86 -706.46)"/></g></svg>